<?xml version="1.0" standalone="no"?>
<!DOCTYPE svg PUBLIC "-//W3C//DTD SVG 20010904//EN"
 "http://www.w3.org/TR/2001/REC-SVG-20010904/DTD/svg10.dtd">
<svg version="1.0" xmlns="http://www.w3.org/2000/svg" 
 width="500.000000pt" height="500.000000pt" viewBox="0 0 500.000000 500.000000"
 preserveAspectRatio="xMidYMid meet">
<metadata>
Created by potrace 1.16, written by Peter Selinger 2001-2019
</metadata>
<g transform="translate(0.000000,500.000000) scale(0.100000,-0.100000)"
fill="#000000" stroke="none">
<path d="M668 4313 l-608 -608 -2 -1828 c-2 -1209 0 -1827 7 -1827 5 0 281
271 612 602 l603 603 603 -603 c331 -331 607 -602 612 -602 5 0 281 271 612
602 l603 603 603 -603 c331 -331 605 -602 610 -602 4 0 7 822 7 1827 l0 1828
-602 605 c-332 332 -609 606 -617 608 -8 2 -270 -252 -615 -597 l-601 -601
-600 600 c-330 330 -604 600 -610 600 -6 0 -283 -273 -617 -607z"/>
</g>
</svg>
